<?xml version="1.0" encoding="utf-8"?>
<svg viewBox="0 0 328.21 183.989" xmlns="http://www.w3.org/2000/svg">
  <defs>
    <filter id="filter0_i_97_376" x="0" y="0" width="1200" height="675" filterUnits="userSpaceOnUse" color-interpolation-filters="sRGB">
      <feFlood flood-opacity="0" result="BackgroundImageFix"/>
      <feBlend mode="normal" in="SourceGraphic" in2="BackgroundImageFix" result="shape"/>
      <feColorMatrix in="SourceAlpha" type="matrix" values="0 0 0 0 0 0 0 0 0 0 0 0 0 0 0 0 0 0 127 0" result="hardAlpha"/>
      <feOffset dy="4"/>
      <feGaussianBlur stdDeviation="2"/>
      <feComposite in2="hardAlpha" operator="arithmetic" k2="-1" k3="1"/>
      <feColorMatrix type="matrix" values="0 0 0 0 0 0 0 0 0 0 0 0 0 0 0 0 0 0 0.25 0"/>
      <feBlend mode="normal" in2="shape" result="effect1_innerShadow_97_376"/>
    </filter>
  </defs>
  <mask id="mask0_97_376" style="mask-type:alpha" maskUnits="userSpaceOnUse" x="0" y="0" width="1197" height="671">
    <path d="M0 30C0 13.4315 13.4315 0 30 0H1167C1183.57 0 1197 13.4315 1197 30V641C1197 657.569 1183.57 671 1167 671H513C496.431 671 483 657.569 483 641V552C483 535.431 469.569 522 453 522H30C13.4315 522 0 508.569 0 492V30Z" fill="#D9D9D9"/>
  </mask>
  <g mask="url(#mask0_97_376)" transform="matrix(0.2741910219192505, 0, 0, 0.2741910219192505, 0.0000010000001111620804, 0)" style="">
    <g filter="url(#filter0_i_97_376)">
      <rect width="1200" height="671" rx="30" style=""/>
    </g>
  </g>
</svg>