<svg width="256" height="256" viewBox="0 0 256 256" fill="none" xmlns="http://www.w3.org/2000/svg">
<path d="M213.333 138.667C213.333 192 176 218.667 131.627 234.133C129.303 234.921 126.779 234.883 124.48 234.027C79.9998 218.667 42.6665 192 42.6665 138.667V64C42.6665 61.171 43.7903 58.4579 45.7907 56.4575C47.7911 54.4571 50.5042 53.3333 53.3332 53.3333C74.6665 53.3333 101.333 40.5333 119.893 24.32C122.153 22.3893 125.028 21.3285 128 21.3285C130.972 21.3285 133.847 22.3893 136.107 24.32C154.773 40.64 181.333 53.3333 202.666 53.3333C205.495 53.3333 208.209 54.4571 210.209 56.4575C212.209 58.4579 213.333 61.171 213.333 64V138.667Z" stroke="black" stroke-width="12" stroke-linecap="round" stroke-linejoin="round"/>
<g clip-path="url(#clip0_160_293)">
<path d="M151.163 118.315C139.25 96.8338 115.906 95.2041 108.355 67.479C106.6 61.0135 80.885 114.779 92.029 146.32C100.183 169.366 125.637 180.889 141.479 171.196C157.32 161.503 163.076 139.795 151.163 118.315Z" stroke="black" stroke-width="8" stroke-linecap="round" stroke-linejoin="round"/>
<path d="M111.757 118.722C120.498 144.714 133.464 164.279 155.444 180.767" stroke="black" stroke-width="8" stroke-linecap="round" stroke-linejoin="round"/>
</g>
<defs>
<clipPath id="clip0_160_293">
<rect width="118.845" height="118.845" fill="white" transform="translate(104.029 48) rotate(28.128)"/>
</clipPath>
</defs>
</svg>
