<svg width="74" height="74" viewBox="0 0 74 74" fill="none" xmlns="http://www.w3.org/2000/svg">
<path d="M60.4374 60.3331C57.1724 63.7491 53.1913 66.3996 48.7802 68.0942C44.3691 69.7888 39.6375 70.4854 34.9252 70.134" stroke="black" stroke-linecap="round"/>
<path d="M52.9942 62.6119C49.619 64.7832 45.8298 66.2303 41.8664 66.8616C37.903 67.4929 33.8518 67.2947 29.9689 66.2795" stroke="black" stroke-linecap="round"/>
<path d="M60.3229 13.5344C63.7389 16.7994 66.3894 20.7805 68.084 25.1916C69.7786 29.6027 70.4752 34.3344 70.1238 39.0467" stroke="black" stroke-linecap="round"/>
<path d="M62.6017 20.9776C64.773 24.3529 66.2201 28.1421 66.8514 32.1054C67.4827 36.0688 67.2845 40.1201 66.2693 44.0029" stroke="black" stroke-linecap="round"/>
<path d="M13.6643 60.2999C10.2483 57.0349 7.5978 53.0538 5.90321 48.6427C4.20861 44.2316 3.51198 39.5 3.86335 34.7876" stroke="black" stroke-linecap="round"/>
<path d="M11.3855 52.8567C9.21419 49.4815 7.7671 45.6923 7.13579 41.7289C6.50448 37.7655 6.70269 33.7142 7.71788 29.8314" stroke="black" stroke-linecap="round"/>
<path d="M27.1181 22.7138C21.5625 19.125 15.8125 21.7013 10.5 16.0763C9.26251 14.7638 9.98126 30.795 16.6313 36.87C21.4931 41.3075 29 40.8125 31.5313 36.5C34.0625 32.1875 32.6738 26.3019 27.1181 22.7138Z" stroke="black" stroke-width="2" stroke-linecap="round" stroke-linejoin="round"/>
<path d="M17.8125 27.8125C23.1875 32.875 28.75 35.875 36.0625 37" stroke="black" stroke-width="2" stroke-linecap="round" stroke-linejoin="round"/>
<path d="M13.5344 13.6643C16.7994 10.2483 20.7805 7.5978 25.1916 5.90321C29.6027 4.20861 34.3343 3.51198 39.0466 3.86335" stroke="black" stroke-linecap="round"/>
<path d="M20.9776 11.3855C24.3528 9.21419 28.142 7.7671 32.1054 7.13579C36.0688 6.50448 40.12 6.70269 44.0029 7.71788" stroke="black" stroke-linecap="round"/>
<path d="M22.7138 46.8819C19.125 52.4375 21.7013 58.1875 16.0763 63.5C14.7638 64.7375 30.795 64.0187 36.87 57.3687C41.3075 52.5069 40.8125 45 36.5 42.4687C32.1875 39.9375 26.3019 41.3262 22.7138 46.8819Z" stroke="black" stroke-width="2" stroke-linecap="round" stroke-linejoin="round"/>
<path d="M27.8125 56.1875C32.875 50.8125 35.875 45.25 37 37.9375" stroke="black" stroke-width="2" stroke-linecap="round" stroke-linejoin="round"/>
<path d="M46.8819 51.2862C52.4375 54.875 58.1875 52.2987 63.5 57.9237C64.7375 59.2362 64.0187 43.205 57.3687 37.13C52.5069 32.6925 45 33.1875 42.4687 37.5C39.9375 41.8125 41.3262 47.6981 46.8819 51.2862Z" stroke="black" stroke-width="2" stroke-linecap="round" stroke-linejoin="round"/>
<path d="M56.1875 46.1875C50.8125 41.125 45.25 38.125 37.9375 37" stroke="black" stroke-width="2" stroke-linecap="round" stroke-linejoin="round"/>
<path d="M51.2862 27.1181C54.875 21.5625 52.2987 15.8125 57.9237 10.5C59.2362 9.26251 43.205 9.98126 37.13 16.6313C32.6925 21.4931 33.1875 29 37.5 31.5313C41.8125 34.0625 47.6981 32.6738 51.2862 27.1181Z" stroke="black" stroke-width="2" stroke-linecap="round" stroke-linejoin="round"/>
<path d="M46.1875 17.8125C41.125 23.1875 38.125 28.75 37 36.0625" stroke="black" stroke-width="2" stroke-linecap="round" stroke-linejoin="round"/>
<circle cx="37" cy="37" r="36" stroke="black"/>
</svg>
