<svg width="64" height="62" viewBox="5 3 54 53" fill="none" xmlns="http://www.w3.org/2000/svg">
<path d="M40.0611 22.5L24.3653 37.5M24.3653 22.5H24.3914M40.0611 37.5H40.0873M10.893 21.55C10.5112 19.9063 10.5699 18.1971 11.0635 16.5808C11.5571 14.9646 12.4698 13.4936 13.7169 12.3043C14.964 11.115 16.5051 10.2459 18.1974 9.77749C19.8896 9.30911 21.6782 9.25666 23.3974 9.625C24.3436 8.21075 25.6471 7.0469 27.1878 6.24071C28.7285 5.43453 30.4567 5.01196 32.2132 5.01196C33.9697 5.01196 35.6979 5.43453 37.2386 6.24071C38.7793 7.0469 40.0828 8.21075 41.029 9.625C42.7507 9.25506 44.5424 9.30727 46.2374 9.77678C47.9323 10.2463 49.4755 11.1179 50.7234 12.3104C51.9712 13.5029 52.8832 14.9777 53.3745 16.5975C53.8658 18.2173 53.9204 19.9296 53.5333 21.575C55.0132 22.4793 56.231 23.725 57.0746 25.1974C57.9182 26.6697 58.3603 28.3214 58.3603 30C58.3603 31.6786 57.9182 33.3303 57.0746 34.8026C56.231 36.275 55.0132 37.5207 53.5333 38.425C53.9187 40.0679 53.8639 41.7772 53.3738 43.3945C52.8837 45.0117 51.9742 46.4845 50.7297 47.6763C49.4853 48.8681 47.946 49.7403 46.2548 50.2121C44.5636 50.6839 42.7751 50.7399 41.0552 50.375C40.1102 51.7947 38.8056 52.9635 37.2623 53.7733C35.719 54.5831 33.9869 55.0076 32.2263 55.0076C30.4657 55.0076 28.7335 54.5831 27.1902 53.7733C25.6469 52.9635 24.3424 51.7947 23.3974 50.375C21.6782 50.7433 19.8896 50.6909 18.1974 50.2225C16.5051 49.7541 14.964 48.885 13.7169 47.6957C12.4698 46.5064 11.5571 45.0354 11.0635 43.4192C10.5699 41.8029 10.5112 40.0937 10.893 38.45C9.40183 37.5481 8.17353 36.3004 7.32238 34.823C6.47123 33.3456 6.0249 31.6865 6.0249 30C6.0249 28.3135 6.47123 26.6544 7.32238 25.177C8.17353 23.6996 9.40183 22.4519 10.893 21.55Z" stroke="black" stroke-width="2" stroke-linecap="round" stroke-linejoin="round"/>
<ellipse cx="24.3653" cy="22.5" rx="2.61597" ry="2.5" fill="black"/>
<ellipse cx="40.0611" cy="37.5" rx="2.61597" ry="2.5" fill="black"/>
</svg>
