<svg width="55" height="52" viewBox="0 0 55 52" fill="none" xmlns="http://www.w3.org/2000/svg">
<path d="M19.8666 36H32.9465M6.39438 17.55C6.01255 15.9063 6.07118 14.1971 6.56483 12.5808C7.05847 10.9646 7.97114 9.49361 9.21823 8.3043C10.4653 7.11499 12.0064 6.24586 13.6987 5.77749C15.391 5.30911 17.1796 5.25666 18.8987 5.625C19.8449 4.21075 21.1484 3.0469 22.6891 2.24071C24.2298 1.43453 25.958 1.01196 27.7145 1.01196C29.471 1.01196 31.1992 1.43453 32.7399 2.24071C34.2806 3.0469 35.5841 4.21075 36.5303 5.625C38.2521 5.25506 40.0438 5.30727 41.7387 5.77678C43.4337 6.2463 44.9769 7.11785 46.2247 8.31038C47.4726 9.50291 48.3845 10.9777 48.8758 12.5975C49.3671 14.2173 49.4218 15.9296 49.0347 17.575C50.5145 18.4793 51.7323 19.725 52.5759 21.1974C53.4195 22.6697 53.8617 24.3214 53.8617 26C53.8617 27.6786 53.4195 29.3303 52.5759 30.8026C51.7323 32.275 50.5145 33.5207 49.0347 34.425C49.4201 36.0679 49.3652 37.7772 48.8751 39.3945C48.385 41.0117 47.4755 42.4845 46.2311 43.6763C44.9866 44.8681 43.4474 45.7403 41.7561 46.2121C40.0649 46.6839 38.2764 46.7399 36.5565 46.375C35.6115 47.7947 34.307 48.9635 32.7637 49.7733C31.2204 50.5831 29.4882 51.0076 27.7276 51.0076C25.967 51.0076 24.2348 50.5831 22.6915 49.7733C21.1482 48.9635 19.8437 47.7947 18.8987 46.375C17.1796 46.7433 15.391 46.6909 13.6987 46.2225C12.0064 45.7541 10.4653 44.885 9.21823 43.6957C7.97114 42.5064 7.05847 41.0354 6.56483 39.4192C6.07118 37.8029 6.01255 36.0937 6.39438 34.45C4.90316 33.5481 3.67485 32.3004 2.82371 30.823C1.97256 29.3456 1.52623 27.6865 1.52623 26C1.52623 24.3135 1.97256 22.6544 2.82371 21.177C3.67485 19.6996 4.90316 18.4519 6.39438 17.55Z" stroke="black" stroke-width="2" stroke-linecap="round" stroke-linejoin="round"/>
<path d="M19.8666 26H32.9464C34.334 26 35.6648 25.4732 36.646 24.5355C37.6272 23.5979 38.1784 22.3261 38.1784 21C38.1784 19.6739 37.6272 18.4021 36.646 17.4645C35.6648 16.5268 34.334 16 32.9464 16H25.0985V38.5" stroke="black" stroke-width="2" stroke-linecap="round" stroke-linejoin="round"/>
</svg>
