<svg width="64" height="64" viewBox="8 3 48 54" fill="none" xmlns="http://www.w3.org/2000/svg">
<path d="M52.6396 32.5C52.6396 45 43.4837 51.25 32.6013 54.875C32.0314 55.0596 31.4124 55.0507 30.8486 54.85C19.94 51.25 10.7841 45 10.7841 32.5V15C10.7841 14.337 11.0597 13.7011 11.5503 13.2323C12.0409 12.7634 12.7063 12.5 13.4001 12.5C18.632 12.5 25.1719 9.50003 29.7237 5.70003C30.2779 5.24752 30.9829 4.9989 31.7119 4.9989C32.4408 4.9989 33.1458 5.24752 33.7 5.70003C38.2779 9.52502 44.7917 12.5 50.0236 12.5C50.7174 12.5 51.3828 12.7634 51.8734 13.2323C52.364 13.7011 52.6396 14.337 52.6396 15V32.5Z" stroke="black" stroke-width="2" stroke-linecap="round" stroke-linejoin="round"/>
<g clip-path="url(#clip0_42_445)">
<g filter="url(#filter0_d_42_445)">
<path d="M27.1465 23.6506C24.5628 22.0556 21.8887 23.2006 19.418 20.7006C18.8425 20.1173 19.1768 27.2423 22.2694 29.9423C24.5305 31.9145 28.0217 31.6945 29.1988 29.7778C30.376 27.8612 29.7302 25.2453 27.1465 23.6506Z" stroke="black" stroke-linecap="round" stroke-linejoin="round" shape-rendering="crispEdges"/>
</g>
<g filter="url(#filter1_d_42_445)">
<path d="M22.8188 25.9167C25.3185 28.1667 27.9054 29.5 31.3061 30" stroke="black" stroke-linecap="round" stroke-linejoin="round" shape-rendering="crispEdges"/>
</g>
</g>
<g clip-path="url(#clip1_42_445)">
<g filter="url(#filter2_d_42_445)">
<path d="M25.0982 34.3919C23.4292 36.8611 24.6273 39.4166 22.0114 41.7777C21.401 42.3277 28.8565 42.0083 31.6817 39.0527C33.7454 36.8919 33.5152 33.5555 31.5097 32.4305C29.5041 31.3055 26.7669 31.9227 25.0982 34.3919Z" stroke="black" stroke-linecap="round" stroke-linejoin="round" shape-rendering="crispEdges"/>
</g>
<g filter="url(#filter3_d_42_445)">
<path d="M27.4694 38.5278C29.8238 36.1389 31.219 33.6667 31.7422 30.4167" stroke="black" stroke-linecap="round" stroke-linejoin="round" shape-rendering="crispEdges"/>
</g>
</g>
<g clip-path="url(#clip2_42_445)">
<g filter="url(#filter4_d_42_445)">
<path d="M36.3379 36.3494C38.9216 37.9444 41.5957 36.7994 44.0663 39.2994C44.6419 39.8827 44.3076 32.7577 41.2149 30.0577C38.9539 28.0855 35.4627 28.3055 34.2855 30.2222C33.1083 32.1388 33.7542 34.7547 36.3379 36.3494Z" stroke="black" stroke-linecap="round" stroke-linejoin="round" shape-rendering="crispEdges"/>
</g>
<g filter="url(#filter5_d_42_445)">
<path d="M40.6656 34.0833C38.1659 31.8333 35.579 30.5 32.1782 30" stroke="black" stroke-linecap="round" stroke-linejoin="round" shape-rendering="crispEdges"/>
</g>
</g>
<g clip-path="url(#clip3_42_445)">
<g filter="url(#filter6_d_42_445)">
<path d="M38.3862 25.6081C40.0551 23.1389 38.857 20.5834 41.473 18.2223C42.0834 17.6723 34.6279 17.9917 31.8026 20.9473C29.7389 23.1081 29.9691 26.4445 31.9747 27.5695C33.9803 28.6945 36.7175 28.0773 38.3862 25.6081Z" stroke="black" stroke-linecap="round" stroke-linejoin="round" shape-rendering="crispEdges"/>
</g>
<g filter="url(#filter7_d_42_445)">
<path d="M36.015 21.4722C33.6606 23.8611 32.2654 26.3333 31.7422 29.5833" stroke="black" stroke-linecap="round" stroke-linejoin="round" shape-rendering="crispEdges"/>
</g>
</g>
<defs>
<filter id="filter0_d_42_445" x="14.6859" y="20.1667" width="19.5815" height="19.6552" filterUnits="userSpaceOnUse" color-interpolation-filters="sRGB">
<feFlood flood-opacity="0" result="BackgroundImageFix"/>
<feColorMatrix in="SourceAlpha" type="matrix" values="0 0 0 0 0 0 0 0 0 0 0 0 0 0 0 0 0 0 127 0" result="hardAlpha"/>
<feOffset dy="4"/>
<feGaussianBlur stdDeviation="2"/>
<feComposite in2="hardAlpha" operator="out"/>
<feColorMatrix type="matrix" values="0 0 0 0 0 0 0 0 0 0 0 0 0 0 0 0 0 0 0.25 0"/>
<feBlend mode="normal" in2="BackgroundImageFix" result="effect1_dropShadow_42_445"/>
<feBlend mode="normal" in="SourceGraphic" in2="effect1_dropShadow_42_445" result="shape"/>
</filter>
<filter id="filter1_d_42_445" x="18.3188" y="25.4167" width="17.4874" height="13.0834" filterUnits="userSpaceOnUse" color-interpolation-filters="sRGB">
<feFlood flood-opacity="0" result="BackgroundImageFix"/>
<feColorMatrix in="SourceAlpha" type="matrix" values="0 0 0 0 0 0 0 0 0 0 0 0 0 0 0 0 0 0 127 0" result="hardAlpha"/>
<feOffset dy="4"/>
<feGaussianBlur stdDeviation="2"/>
<feComposite in2="hardAlpha" operator="out"/>
<feColorMatrix type="matrix" values="0 0 0 0 0 0 0 0 0 0 0 0 0 0 0 0 0 0 0.25 0"/>
<feBlend mode="normal" in2="BackgroundImageFix" result="effect1_dropShadow_42_445"/>
<feBlend mode="normal" in="SourceGraphic" in2="effect1_dropShadow_42_445" result="shape"/>
</filter>
<filter id="filter2_d_42_445" x="17.4758" y="31.3881" width="20.1496" height="19.1115" filterUnits="userSpaceOnUse" color-interpolation-filters="sRGB">
<feFlood flood-opacity="0" result="BackgroundImageFix"/>
<feColorMatrix in="SourceAlpha" type="matrix" values="0 0 0 0 0 0 0 0 0 0 0 0 0 0 0 0 0 0 127 0" result="hardAlpha"/>
<feOffset dy="4"/>
<feGaussianBlur stdDeviation="2"/>
<feComposite in2="hardAlpha" operator="out"/>
<feColorMatrix type="matrix" values="0 0 0 0 0 0 0 0 0 0 0 0 0 0 0 0 0 0 0.25 0"/>
<feBlend mode="normal" in2="BackgroundImageFix" result="effect1_dropShadow_42_445"/>
<feBlend mode="normal" in="SourceGraphic" in2="effect1_dropShadow_42_445" result="shape"/>
</filter>
<filter id="filter3_d_42_445" x="22.9694" y="29.9166" width="13.2728" height="17.1112" filterUnits="userSpaceOnUse" color-interpolation-filters="sRGB">
<feFlood flood-opacity="0" result="BackgroundImageFix"/>
<feColorMatrix in="SourceAlpha" type="matrix" values="0 0 0 0 0 0 0 0 0 0 0 0 0 0 0 0 0 0 127 0" result="hardAlpha"/>
<feOffset dy="4"/>
<feGaussianBlur stdDeviation="2"/>
<feComposite in2="hardAlpha" operator="out"/>
<feColorMatrix type="matrix" values="0 0 0 0 0 0 0 0 0 0 0 0 0 0 0 0 0 0 0.25 0"/>
<feBlend mode="normal" in2="BackgroundImageFix" result="effect1_dropShadow_42_445"/>
<feBlend mode="normal" in="SourceGraphic" in2="effect1_dropShadow_42_445" result="shape"/>
</filter>
<filter id="filter4_d_42_445" x="29.217" y="28.178" width="19.5815" height="19.6552" filterUnits="userSpaceOnUse" color-interpolation-filters="sRGB">
<feFlood flood-opacity="0" result="BackgroundImageFix"/>
<feColorMatrix in="SourceAlpha" type="matrix" values="0 0 0 0 0 0 0 0 0 0 0 0 0 0 0 0 0 0 127 0" result="hardAlpha"/>
<feOffset dy="4"/>
<feGaussianBlur stdDeviation="2"/>
<feComposite in2="hardAlpha" operator="out"/>
<feColorMatrix type="matrix" values="0 0 0 0 0 0 0 0 0 0 0 0 0 0 0 0 0 0 0.25 0"/>
<feBlend mode="normal" in2="BackgroundImageFix" result="effect1_dropShadow_42_445"/>
<feBlend mode="normal" in="SourceGraphic" in2="effect1_dropShadow_42_445" result="shape"/>
</filter>
<filter id="filter5_d_42_445" x="27.6782" y="29.4999" width="17.4874" height="13.0834" filterUnits="userSpaceOnUse" color-interpolation-filters="sRGB">
<feFlood flood-opacity="0" result="BackgroundImageFix"/>
<feColorMatrix in="SourceAlpha" type="matrix" values="0 0 0 0 0 0 0 0 0 0 0 0 0 0 0 0 0 0 127 0" result="hardAlpha"/>
<feOffset dy="4"/>
<feGaussianBlur stdDeviation="2"/>
<feComposite in2="hardAlpha" operator="out"/>
<feColorMatrix type="matrix" values="0 0 0 0 0 0 0 0 0 0 0 0 0 0 0 0 0 0 0.25 0"/>
<feBlend mode="normal" in2="BackgroundImageFix" result="effect1_dropShadow_42_445"/>
<feBlend mode="normal" in="SourceGraphic" in2="effect1_dropShadow_42_445" result="shape"/>
</filter>
<filter id="filter6_d_42_445" x="25.8589" y="17.5004" width="20.1496" height="19.1115" filterUnits="userSpaceOnUse" color-interpolation-filters="sRGB">
<feFlood flood-opacity="0" result="BackgroundImageFix"/>
<feColorMatrix in="SourceAlpha" type="matrix" values="0 0 0 0 0 0 0 0 0 0 0 0 0 0 0 0 0 0 127 0" result="hardAlpha"/>
<feOffset dy="4"/>
<feGaussianBlur stdDeviation="2"/>
<feComposite in2="hardAlpha" operator="out"/>
<feColorMatrix type="matrix" values="0 0 0 0 0 0 0 0 0 0 0 0 0 0 0 0 0 0 0.25 0"/>
<feBlend mode="normal" in2="BackgroundImageFix" result="effect1_dropShadow_42_445"/>
<feBlend mode="normal" in="SourceGraphic" in2="effect1_dropShadow_42_445" result="shape"/>
</filter>
<filter id="filter7_d_42_445" x="27.2421" y="20.9722" width="13.2728" height="17.1112" filterUnits="userSpaceOnUse" color-interpolation-filters="sRGB">
<feFlood flood-opacity="0" result="BackgroundImageFix"/>
<feColorMatrix in="SourceAlpha" type="matrix" values="0 0 0 0 0 0 0 0 0 0 0 0 0 0 0 0 0 0 127 0" result="hardAlpha"/>
<feOffset dy="4"/>
<feGaussianBlur stdDeviation="2"/>
<feComposite in2="hardAlpha" operator="out"/>
<feColorMatrix type="matrix" values="0 0 0 0 0 0 0 0 0 0 0 0 0 0 0 0 0 0 0.25 0"/>
<feBlend mode="normal" in2="BackgroundImageFix" result="effect1_dropShadow_42_445"/>
<feBlend mode="normal" in="SourceGraphic" in2="effect1_dropShadow_42_445" result="shape"/>
</filter>
<clipPath id="clip0_42_445">
<rect width="14.882" height="14.2222" fill="white" transform="translate(17.7903 18.8889)"/>
</clipPath>
<clipPath id="clip1_42_445">
<rect width="14.2222" height="14.882" fill="white" transform="matrix(0 -1 1 0 20.1157 43.3333)"/>
</clipPath>
<clipPath id="clip2_42_445">
<rect width="14.882" height="14.2222" fill="white" transform="matrix(-1 0 0 -1 45.694 41.1111)"/>
</clipPath>
<clipPath id="clip3_42_445">
<rect width="14.2222" height="14.882" fill="white" transform="matrix(0 1 -1 0 43.3687 16.6667)"/>
</clipPath>
</defs>
</svg>
